Coordinates
nRows=172
nColumns=2
inDegrees=yes
endheader
time	ankle_angle_r	
1.74989	 18.768143	
1.81238	 18.796541	
1.87488	 18.794529	
1.93738	 18.824765	
1.99987	 18.830322	
2.06237	 18.789160	
2.12486	 18.748839	
2.18736	 18.702169	
2.24986	 18.689619	
2.31235	 18.693970	
2.37485	 18.680865	
2.43734	 18.706323	
2.49984	 18.756067	
2.56234	 18.793751	
2.62483	 18.797799	
2.68733	 18.771555	
2.74982	 18.768757	
2.81232	 18.770691	
2.87482	 18.784734	
2.93731	 18.832958	
2.99981	 18.846568	
3.0623	 18.837684	
3.1248	 18.827769	
3.1873	 18.784812	
3.24979	 18.765564	
3.31229	 18.779277	
3.37478	 18.791930	
3.43728	 18.821113	
3.49978	 18.828014	
3.56227	 18.803275	
3.62477	 18.775516	
3.68726	 18.734178	
3.74976	 18.701323	
3.81226	 18.677933	
3.87475	 18.668540	
3.93725	 18.708580	
3.99974	 18.766055	
4.06224	 18.802493	
4.12474	 18.797167	
4.18723	 18.768198	
4.24973	 18.773625	
4.31222	 18.783503	
4.37472	 18.794528	
4.43722	 18.847525	
4.49971	 18.875225	
4.56221	 18.851083	
4.6247	 18.813089	
4.6872	 18.779757	
4.7497	 18.777260	
4.81219	 18.778731	
4.87469	 18.789563	
4.93718	 18.829980	
4.99968	 18.833744	
5.06218	 18.805248	
5.12467	 18.765444	
5.18717	 18.699622	
5.24966	 18.664916	
5.31216	 18.663901	
5.37466	 18.683292	
5.43715	 18.745209	
5.49965	 18.793558	
5.56214	 18.814704	
5.62464	 18.817765	
5.68714	 18.784311	
5.74963	 18.763186	
5.81213	 18.761988	
5.87462	 18.787369	
5.93712	 18.854816	
5.99962	 18.877540	
6.06211	 18.854510	
6.12461	 18.828629	
6.1871	 18.780562	
6.2496	 18.759465	
6.3121	 18.776498	
6.37459	 18.808271	
6.43709	 18.840135	
6.49958	 18.819921	
6.56208	 18.784400	
6.62458	 18.743725	
6.68707	 18.680454	
6.74957	 18.674178	
6.81206	 18.693071	
6.87456	 18.699067	
6.93706	 18.751509	
6.99955	 18.798495	
7.06205	 18.806932	
7.12454	 18.801742	
7.18704	 18.777907	
7.24954	 18.777737	
7.31203	 18.786675	
7.37453	 18.794496	
7.43702	 18.833329	
7.49952	 18.849847	
7.56202	 18.848264	
7.62451	 18.832703	
7.68701	 18.788090	
7.7495	 18.784739	
7.812	 18.786435	
7.8745	 18.771311	
7.93699	 18.791466	
7.99949	 18.789038	
8.06198	 18.764173	
8.12448	 18.742830	
8.18698	 18.706335	
8.24947	 18.695333	
8.31197	 18.682027	
8.37446	 18.673357	
8.43696	 18.740437	
8.49946	 18.812535	
8.56195	 18.826511	
8.62445	 18.796835	
8.68694	 18.761626	
8.74944	 18.758886	
8.81194	 18.762827	
8.87443	 18.803382	
8.93693	 18.866638	
8.99942	 18.853731	
9.06192	 18.828997	
9.12442	 18.826632	
9.18691	 18.787167	
9.24941	 18.769414	
9.3119	 18.779315	
9.3744	 18.789026	
9.4369	 18.803279	
9.49939	 18.774601	
9.56189	 18.742555	
9.62438	 18.723420	
9.68688	 18.685610	
9.74938	 18.684848	
9.81187	 18.704260	
9.87437	 18.726204	
9.93686	 18.743653	
9.99936	 18.717880	
10.0619	 18.718506	
10.1244	 18.713872	
10.1868	 18.659364	
10.2493	 18.653262	
10.3118	 18.664840	
10.3743	 18.680774	
10.4368	 18.728616	
10.4993	 18.747617	
10.5618	 18.762825	
10.6243	 18.744417	
10.6868	 18.680083	
10.7493	 18.673706	
10.8118	 18.678114	
10.8743	 18.678522	
10.9368	 18.719624	
10.9993	 18.729254	
11.0618	 18.718608	
11.1243	 18.706319	
11.1868	 18.672578	
11.2493	 18.664370	
11.3118	 18.665017	
11.3743	 18.687702	
11.4368	 18.742517	
11.4993	 18.746409	
11.5618	 18.740308	
11.6243	 18.742303	
11.6868	 18.695653	
11.7492	 18.655263	
11.8117	 18.649388	
11.8742	 18.686479	
11.9367	 18.739016	
11.9992	 18.737601	
12.0617	 18.752834	
12.1242	 18.797716	
12.1867	 18.804884	
12.2492	 18.795256	
12.3117	 18.757378	
12.3742	 18.750492	
12.4367	 18.874741	
